{"title":"Beverly Hills Chihuahua 2 (2011)(DivX)(DD5.1)(Audio Dutch) TBS","uid":6152822,"size":939298717,"categoryP":"video","categoryS":"movies","magnet":"?xt=urn:btih:a7163e89656a3e5098f476b15e74dd341de2f6fc&amp;dn=Beverly+Hills+Chihuahua+2+%282011%29%28DivX%29%28DD5.1%29%28Audio+Dutch%29+TBS&amp;tr=udp%3A%2F%2Ftracker.openbittorrent.com%3A80&amp;tr=udp%3A%2F%2Fopen.demonii.com%3A1337&amp;tr=udp%3A%2F%2Ftracker.coppersurfer.tk%3A6969&amp;tr=udp%3A%2F%2Fexodus.desync.com%3A6969","seeders":3,"leechers":0,"uploader":"BlackSam.","files":-1,"time":1296930655,"description":"Beverly Hills Chihuahua 2 (2011)(DivX)(DD5.1)(Audio Dutch) TBS  \n\n*****RELEASE 8 februari op video*****\n\n\n\n\n\nVerenigde Staten\nKomedie\n\ngeregisseerd door Alex Zamm\nmet de stem van Odette Yustman, George Lopez en Christine Lakin\n\nDe schattige Chihuahua?s, Chloe en Papi zijn terug en klaar om samen aan hun nieuwe leven te beginnen. Met hun gezin van vijf pups genieten ze van het leven \nin het huis van tante Vivian die met haar nichtje, Rachel, op vakantie is. Rachel?s vriend Sam Cortez past op het huis wanneer hij erachter komt dat zijn eigen huis van hem en zijn familie wordt ontnomen. Chloe en Papi weten dat ze actie moeten ondernemen. Met de hulp van hun pups en hun vriend de Duitse Herder zullen zij proberen om deze dag tot een goed einde te brengen!\n\nStoryline:\n\nThe cute Chihuahua? S, Chloe and Papi are back and ready to work on their new lives begin. With their family of five puppies they enjoy living in the house \nof Aunt Vivian with her niece, Rachel, is on vacation. Rachel?'s Friend Sam Cortez looks after the house when he learns that his house from him and his family enjoyed. Chloe and Papi know they must act. With the help of their friend and their pups German Shepherd they will try to make this day a successful conclusion!\n\nInfo :\n\nSOURCE..........: RETAIL DVD5\nSIZE............: 895 MB\nFORM............: AVI\nVIDEO CODEC.....: XVID \nAUDIO...........: Nederlands\nAUDIO CODE......: AC3\nBITRATE.........: 384kbps\nCHANNELS........: 5\nSUBTITELS.......: Geen\nCategorie.......: Beeld \nFormaat.........: DivX \nBron............: Retail\nOndertitels.....: Geen\nThanks..........: Inge2222  \n \n\n\n\nGeneral\n\nFormat                           : DivX\nFormat/Info                      : Hack of AVI\nFile size                        : 896 MiB\nDuration                         : 1h 20mn\nOverall bit rate                 : 1 559 Kbps\n\nVideo\nID                               : 0\nFormat                           : MPEG-4 Visual\nFormat profile                   : Advanced Simple@L5\nFormat settings, BVOP            : Yes\nFormat settings, QPel            : No\nFormat settings, GMC             : No warppoints\nFormat settings, Matrix          : Default (H.263)\nMuxing mode                      : Packed bitstream\nCodec ID                         : DX50\nCodec ID/Hint                    : DivX 5\nDuration                         : 1h 20mn\nBit rate                         : 1 165 Kbps\nWidth                            : 720 pixels\nHeight                           : 400 pixels\nDisplay aspect ratio             : 16:9\nFrame rate                       : 25.000 fps\nColor space                      : YUV\nChroma subsampling               : 4:2:0\nBit depth                        : 8 bits\nScan type                        : Progressive\nBits/(Pixel*Frame)               : 0.162\nStream size                      : 669 MiB (75%)\nTitle                            : Video \nWriting library                  : XviD 1.2.1 (UTC 2008-12-04)\n\nAudio\nID                               : 1\nFormat                           : AC-3\nFormat/Info                      : Audio Coding 3\nMode extension                   : CM (complete main)\nCodec ID                         : 2000\nDuration                         : 1h 20mn\nBit rate mode                    : Constant\nBit rate                         : 384 Kbps\nChannel(s)                       : 6 channels\nChannel positions                : Front: L C R, Side: L R, LFE\nSampling rate                    : 48.0 KHz\nBit depth                        : 16 bits\nStream size                      : 221 MiB (25%)\nAlignment                        : Split accross interleaves\nInterleave, duration             : 40 ms (1.00 video frame)\nInterleave, preload duration     : 500 ms\nTitle                            : Audio \n \n  \n \n &lt;a href=&quot;\nhttp://www.moviemeter.nl/film/72493&quot; rel=&quot;nofollow&quot; target=&quot;_NEW&quot;&gt;\nhttp://www.moviemeter.nl/film/72493&lt;/a&gt;   &lt;a href=&quot;\nhttp://www.imdb.com/title/tt1482393&quot; rel=&quot;nofollow&quot; target=&quot;_NEW&quot;&gt;\nhttp://www.imdb.com/title/tt1482393&lt;/a&gt; \n\n\nBlack-Sam","torrent":{"xt":"urn:btih:a7163e89656a3e5098f476b15e74dd341de2f6fc","amp;dn":"Beverly+Hills+Chihuahua+2+%282011%29%28DivX%29%28DD5.1%29%28Audio+Dutch%29+TBS","amp;tr":["udp%3A%2F%2Ftracker.openbittorrent.com%3A80","udp%3A%2F%2Fopen.demonii.com%3A1337","udp%3A%2F%2Ftracker.coppersurfer.tk%3A6969","udp%3A%2F%2Fexodus.desync.com%3A6969"],"infoHash":"a7163e89656a3e5098f476b15e74dd341de2f6fc","infoHashBuffer":{"type":"Buffer","data":[167,22,62,137,101,106,62,80,152,244,118,177,94,116,221,52,29,226,246,252]},"announce":[],"urlList":[]}}